%TF.GenerationSoftware,KiCad,Pcbnew,(5.1.9-0-10_14)*%
%TF.CreationDate,2021-08-17T09:45:53+08:00*%
%TF.ProjectId,arduino_oled_sonic,61726475-696e-46f5-9f6f-6c65645f736f,rev?*%
%TF.SameCoordinates,Original*%
%TF.FileFunction,Copper,L1,Top*%
%TF.FilePolarity,Positive*%
%FSLAX46Y46*%
G04 Gerber Fmt 4.6, Leading zero omitted, Abs format (unit mm)*
G04 Created by KiCad (PCBNEW (5.1.9-0-10_14)) date 2021-08-17 09:45:53*
%MOMM*%
%LPD*%
G01*
G04 APERTURE LIST*
%TA.AperFunction,ComponentPad*%
%ADD10O,1.600000X1.600000*%
%TD*%
%TA.AperFunction,ComponentPad*%
%ADD11C,1.600000*%
%TD*%
%TA.AperFunction,ComponentPad*%
%ADD12O,2.200000X3.500000*%
%TD*%
%TA.AperFunction,ComponentPad*%
%ADD13O,1.500000X2.500000*%
%TD*%
%TA.AperFunction,ComponentPad*%
%ADD14R,1.500000X2.500000*%
%TD*%
%TA.AperFunction,ComponentPad*%
%ADD15R,1.600000X1.600000*%
%TD*%
%TA.AperFunction,SMDPad,CuDef*%
%ADD16R,0.650000X1.700000*%
%TD*%
%TA.AperFunction,SMDPad,CuDef*%
%ADD17R,2.000000X1.500000*%
%TD*%
%TA.AperFunction,SMDPad,CuDef*%
%ADD18R,2.000000X3.800000*%
%TD*%
%TA.AperFunction,ComponentPad*%
%ADD19O,1.700000X1.700000*%
%TD*%
%TA.AperFunction,ComponentPad*%
%ADD20R,1.700000X1.700000*%
%TD*%
%TA.AperFunction,ComponentPad*%
%ADD21C,1.530000*%
%TD*%
%TA.AperFunction,Conductor*%
%ADD22C,0.500000*%
%TD*%
%TA.AperFunction,Conductor*%
%ADD23C,0.300000*%
%TD*%
G04 APERTURE END LIST*
D10*
%TO.P,R3,2*%
%TO.N,/RST*%
X137338000Y-88865000D03*
D11*
%TO.P,R3,1*%
%TO.N,+5V*%
X147498000Y-88865000D03*
%TD*%
D10*
%TO.P,R2,2*%
%TO.N,/SDA*%
X161158000Y-110365000D03*
D11*
%TO.P,R2,1*%
%TO.N,+5V*%
X150998000Y-110365000D03*
%TD*%
D10*
%TO.P,R1,2*%
%TO.N,/SCL*%
X150838000Y-106865000D03*
D11*
%TO.P,R1,1*%
%TO.N,+5V*%
X160998000Y-106865000D03*
%TD*%
D12*
%TO.P,SW1,*%
%TO.N,*%
X129598000Y-108865000D03*
X121398000Y-108865000D03*
D13*
%TO.P,SW1,3*%
%TO.N,N/C*%
X127498000Y-108865000D03*
%TO.P,SW1,2*%
%TO.N,Net-(SW1-Pad2)*%
X125498000Y-108865000D03*
D14*
%TO.P,SW1,1*%
%TO.N,Net-(J4-Pad1)*%
X123498000Y-108865000D03*
%TD*%
D10*
%TO.P,U4,8*%
%TO.N,+5V*%
X143498000Y-102485000D03*
%TO.P,U4,4*%
%TO.N,GND*%
X135878000Y-94865000D03*
%TO.P,U4,7*%
%TO.N,/SCL*%
X140958000Y-102485000D03*
%TO.P,U4,3*%
%TO.N,/Trig*%
X138418000Y-94865000D03*
%TO.P,U4,6*%
%TO.N,/MISO*%
X138418000Y-102485000D03*
%TO.P,U4,2*%
%TO.N,/Echo*%
X140958000Y-94865000D03*
%TO.P,U4,5*%
%TO.N,/SDA*%
X135878000Y-102485000D03*
D15*
%TO.P,U4,1*%
%TO.N,/RST*%
X143498000Y-94865000D03*
%TD*%
D16*
%TO.P,U3,8*%
%TO.N,+5V*%
X151903000Y-102015000D03*
%TO.P,U3,7*%
%TO.N,/SCL*%
X150633000Y-102015000D03*
%TO.P,U3,6*%
%TO.N,/MISO*%
X149363000Y-102015000D03*
%TO.P,U3,5*%
%TO.N,/SDA*%
X148093000Y-102015000D03*
%TO.P,U3,4*%
%TO.N,GND*%
X148093000Y-94715000D03*
%TO.P,U3,3*%
%TO.N,/Trig*%
X149363000Y-94715000D03*
%TO.P,U3,2*%
%TO.N,/Echo*%
X150633000Y-94715000D03*
%TO.P,U3,1*%
%TO.N,/RST*%
X151903000Y-94715000D03*
%TD*%
D17*
%TO.P,U2,1*%
%TO.N,GND*%
X132848000Y-106565000D03*
%TO.P,U2,3*%
%TO.N,Net-(SW1-Pad2)*%
X132848000Y-111165000D03*
%TO.P,U2,2*%
%TO.N,+5V*%
X132848000Y-108865000D03*
D18*
X139148000Y-108865000D03*
%TD*%
D19*
%TO.P,J6,6*%
%TO.N,/RST*%
X128998000Y-102565000D03*
%TO.P,J6,5*%
%TO.N,/SDA*%
X128998000Y-100025000D03*
%TO.P,J6,4*%
%TO.N,/MISO*%
X128998000Y-97485000D03*
%TO.P,J6,3*%
%TO.N,/SCL*%
X128998000Y-94945000D03*
%TO.P,J6,2*%
%TO.N,GND*%
X128998000Y-92405000D03*
D20*
%TO.P,J6,1*%
%TO.N,+5V*%
X128998000Y-89865000D03*
%TD*%
D19*
%TO.P,J5,4*%
%TO.N,+5V*%
X156998000Y-95245000D03*
%TO.P,J5,3*%
%TO.N,GND*%
X156998000Y-97785000D03*
%TO.P,J5,2*%
%TO.N,/SCL*%
X156998000Y-100325000D03*
D20*
%TO.P,J5,1*%
%TO.N,/SDA*%
X156998000Y-102865000D03*
%TD*%
D19*
%TO.P,J4,2*%
%TO.N,GND*%
X121998000Y-95825000D03*
D20*
%TO.P,J4,1*%
%TO.N,Net-(J4-Pad1)*%
X121998000Y-98365000D03*
%TD*%
D11*
%TO.P,C1,2*%
%TO.N,GND*%
X144998000Y-107365000D03*
D15*
%TO.P,C1,1*%
%TO.N,+5V*%
X144998000Y-109865000D03*
%TD*%
D19*
%TO.P,J3,3*%
%TO.N,GND*%
X167248000Y-95535000D03*
%TO.P,J3,2*%
%TO.N,+5V*%
X167248000Y-98075000D03*
D20*
%TO.P,J3,1*%
%TO.N,/Trig*%
X167248000Y-100615000D03*
%TD*%
D19*
%TO.P,J2,3*%
%TO.N,/Trig*%
X170998000Y-95535000D03*
%TO.P,J2,2*%
%TO.N,+5V*%
X170998000Y-98075000D03*
D20*
%TO.P,J2,1*%
%TO.N,GND*%
X170998000Y-100615000D03*
%TD*%
D19*
%TO.P,J1,4*%
%TO.N,GND*%
X160748000Y-95245000D03*
%TO.P,J1,3*%
%TO.N,+5V*%
X160748000Y-97785000D03*
%TO.P,J1,2*%
%TO.N,/SCL*%
X160748000Y-100325000D03*
D20*
%TO.P,J1,1*%
%TO.N,/SDA*%
X160748000Y-102865000D03*
%TD*%
D21*
%TO.P,U1,2*%
%TO.N,/Trig*%
X175748000Y-99635000D03*
%TO.P,U1,3*%
%TO.N,/Echo*%
X175748000Y-97095000D03*
%TO.P,U1,4*%
%TO.N,GND*%
X175748000Y-94555000D03*
%TO.P,U1,1*%
%TO.N,+5V*%
X175748000Y-102175000D03*
%TD*%
D22*
%TO.N,+5V*%
X132848000Y-108865000D02*
X139148000Y-108865000D01*
X139148000Y-108865000D02*
X140498000Y-108865000D01*
X141498000Y-109865000D02*
X144998000Y-109865000D01*
X140498000Y-108865000D02*
X141498000Y-109865000D01*
X144998000Y-109865000D02*
X148498000Y-109865000D01*
X148998000Y-110365000D02*
X150998000Y-110365000D01*
X148498000Y-109865000D02*
X148998000Y-110365000D01*
X150998000Y-110365000D02*
X156498000Y-110365000D01*
X156498000Y-110365000D02*
X158498000Y-112365000D01*
X158498000Y-112365000D02*
X161498000Y-112365000D01*
X161498000Y-112365000D02*
X162998000Y-110865000D01*
X162998000Y-108865000D02*
X160998000Y-106865000D01*
X162998000Y-110865000D02*
X162998000Y-108865000D01*
D23*
X152253001Y-101664999D02*
X162297999Y-101664999D01*
X151903000Y-102015000D02*
X152253001Y-101664999D01*
X162297999Y-101664999D02*
X162998000Y-102365000D01*
D22*
X171058000Y-106865000D02*
X175748000Y-102175000D01*
X160998000Y-106865000D02*
X171058000Y-106865000D01*
X175098000Y-102175000D02*
X175748000Y-102175000D01*
X170998000Y-98075000D02*
X175098000Y-102175000D01*
X162998000Y-104865000D02*
X160998000Y-106865000D01*
X162998000Y-102365000D02*
X162998000Y-104865000D01*
X158208000Y-95245000D02*
X160748000Y-97785000D01*
X156998000Y-95245000D02*
X158208000Y-95245000D01*
X161913000Y-98950000D02*
X160748000Y-97785000D01*
X162998000Y-100035000D02*
X161913000Y-98950000D01*
X162998000Y-102365000D02*
X162998000Y-100035000D01*
%TO.N,GND*%
X132848000Y-106565000D02*
X132848000Y-106515000D01*
X132848000Y-106515000D02*
X133998000Y-105365000D01*
X142998000Y-105365000D02*
X144998000Y-107365000D01*
X133998000Y-105365000D02*
X142998000Y-105365000D01*
D23*
X148093000Y-94770000D02*
X148093000Y-94715000D01*
X146347988Y-96515012D02*
X148093000Y-94770000D01*
X140148012Y-96515012D02*
X146347988Y-96515012D01*
X139568001Y-95935001D02*
X140148012Y-96515012D01*
X139568001Y-93935001D02*
X139568001Y-95935001D01*
X138998000Y-93365000D02*
X139568001Y-93935001D01*
X136498000Y-93365000D02*
X138998000Y-93365000D01*
X135878000Y-93985000D02*
X136498000Y-93365000D01*
X135878000Y-94865000D02*
X135878000Y-93985000D01*
%TO.N,/SCL*%
X150633000Y-106660000D02*
X150838000Y-106865000D01*
X150633000Y-102015000D02*
X150633000Y-106660000D01*
X160748000Y-100325000D02*
X151538000Y-100325000D01*
X150633000Y-101230000D02*
X150633000Y-102015000D01*
X151538000Y-100325000D02*
X150633000Y-101230000D01*
X133418000Y-94945000D02*
X140958000Y-102485000D01*
X128998000Y-94945000D02*
X133418000Y-94945000D01*
X140958000Y-102485000D02*
X144578010Y-98864990D01*
X144578010Y-98864990D02*
X150077990Y-98864990D01*
X150077990Y-98864990D02*
X151538000Y-100325000D01*
%TO.N,/SDA*%
X156998000Y-102865000D02*
X160748000Y-102865000D01*
X148093000Y-105822002D02*
X150635998Y-108365000D01*
X159158000Y-108365000D02*
X161158000Y-110365000D01*
X156998000Y-102865000D02*
X156998000Y-108365000D01*
X156998000Y-108365000D02*
X159158000Y-108365000D01*
X150635998Y-108365000D02*
X156998000Y-108365000D01*
X133418000Y-100025000D02*
X135878000Y-102485000D01*
X128998000Y-100025000D02*
X133418000Y-100025000D01*
X148093000Y-103960000D02*
X148093000Y-105822002D01*
X148093000Y-102015000D02*
X148093000Y-103960000D01*
X147917985Y-104135015D02*
X148093000Y-103960000D01*
X137528016Y-104135015D02*
X147917985Y-104135015D01*
X135878000Y-102485000D02*
X137528016Y-104135015D01*
%TO.N,/Trig*%
X169797999Y-98065001D02*
X167248000Y-100615000D01*
X169797999Y-96735001D02*
X169797999Y-98065001D01*
X170998000Y-95535000D02*
X169797999Y-96735001D01*
X171648000Y-95535000D02*
X170998000Y-95535000D01*
X175748000Y-99635000D02*
X171648000Y-95535000D01*
X149363000Y-94715000D02*
X149363000Y-95937122D01*
X149363000Y-95937122D02*
X150790889Y-97365011D01*
X150790889Y-97365011D02*
X150998011Y-97365011D01*
X164498000Y-97865000D02*
X167248000Y-100615000D01*
X162498000Y-92865000D02*
X164498000Y-94865000D01*
X156998000Y-92865000D02*
X162498000Y-92865000D01*
X152497989Y-97365011D02*
X156998000Y-92865000D01*
X164498000Y-94865000D02*
X164498000Y-97865000D01*
X150998011Y-97365011D02*
X152497989Y-97365011D01*
X138418000Y-94865000D02*
X138418000Y-95996370D01*
X138418000Y-95996370D02*
X139786641Y-97365011D01*
X139786641Y-97365011D02*
X150998011Y-97365011D01*
%TO.N,/RST*%
X151903000Y-93565000D02*
X150203000Y-91865000D01*
X151903000Y-94715000D02*
X151903000Y-93565000D01*
X146498000Y-91865000D02*
X143498000Y-94865000D01*
X150203000Y-91865000D02*
X146498000Y-91865000D01*
X143338000Y-94865000D02*
X143498000Y-94865000D01*
X137338000Y-88865000D02*
X143338000Y-94865000D01*
X128421999Y-93744999D02*
X131118001Y-93744999D01*
X127797999Y-94368999D02*
X128421999Y-93744999D01*
X127797999Y-101364999D02*
X127797999Y-94368999D01*
X128998000Y-102565000D02*
X127797999Y-101364999D01*
X135998000Y-88865000D02*
X137338000Y-88865000D01*
X131118001Y-93744999D02*
X135998000Y-88865000D01*
%TO.N,/MISO*%
X133418000Y-97485000D02*
X138418000Y-102485000D01*
X128998000Y-97485000D02*
X133418000Y-97485000D01*
X144050001Y-103635001D02*
X145998000Y-101687002D01*
X139568001Y-103635001D02*
X144050001Y-103635001D01*
X138418000Y-102485000D02*
X139568001Y-103635001D01*
X145998000Y-101687002D02*
X145998000Y-100365000D01*
X145998000Y-100365000D02*
X146498000Y-99865000D01*
X146498000Y-99865000D02*
X148998000Y-99865000D01*
X149363000Y-100230000D02*
X149363000Y-102015000D01*
X148998000Y-99865000D02*
X149363000Y-100230000D01*
D22*
%TO.N,Net-(SW1-Pad2)*%
X125498000Y-110615000D02*
X125498000Y-108865000D01*
X126048000Y-111165000D02*
X125498000Y-110615000D01*
X132848000Y-111165000D02*
X126048000Y-111165000D01*
D23*
%TO.N,/Echo*%
X149998000Y-92865000D02*
X150633000Y-93500000D01*
X147728002Y-92865000D02*
X149998000Y-92865000D01*
X150633000Y-93500000D02*
X150633000Y-94715000D01*
X144578001Y-96015001D02*
X147728002Y-92865000D01*
X142108001Y-96015001D02*
X144578001Y-96015001D01*
X140958000Y-94865000D02*
X142108001Y-96015001D01*
X170518000Y-91865000D02*
X171508000Y-92855000D01*
X171508000Y-92855000D02*
X175748000Y-97095000D01*
X156633000Y-91865000D02*
X170518000Y-91865000D01*
X152200500Y-96297500D02*
X156633000Y-91865000D01*
X151065500Y-96297500D02*
X152200500Y-96297500D01*
X150633000Y-95865000D02*
X151065500Y-96297500D01*
X150633000Y-94715000D02*
X150633000Y-95865000D01*
%TD*%
M02*
