M48
; DRILL file {KiCad (5.1.9-0-10_14)} date Tuesday, August 17, 2021 at 09:45:57 AM
; FORMAT={-:-/ absolute / metric / decimal}
; #@! TF.CreationDate,2021-08-17T09:45:57+08:00
; #@! TF.GenerationSoftware,Kicad,Pcbnew,(5.1.9-0-10_14)
; #@! TF.FileFunction,Plated,1,2,PTH
FMAT,2
METRIC
T1C0.800
T2C0.900
T3C1.000
T4C1.020
T5C1.500
%
G90
G05
T1
X135.878Y-94.865
X135.878Y-102.485
X137.338Y-88.865
X138.418Y-94.865
X138.418Y-102.485
X140.958Y-94.865
X140.958Y-102.485
X143.498Y-94.865
X143.498Y-102.485
X144.998Y-107.365
X144.998Y-109.865
X147.498Y-88.865
X150.838Y-106.865
X150.998Y-110.365
X160.998Y-106.865
X161.158Y-110.365
T2
X123.498Y-108.865
X125.498Y-108.865
X127.498Y-108.865
T3
X121.998Y-95.825
X121.998Y-98.365
X128.998Y-89.865
X128.998Y-92.405
X128.998Y-94.945
X128.998Y-97.485
X128.998Y-100.025
X128.998Y-102.565
X156.998Y-95.245
X156.998Y-97.785
X156.998Y-100.325
X156.998Y-102.865
X160.748Y-95.245
X160.748Y-97.785
X160.748Y-100.325
X160.748Y-102.865
X167.248Y-95.535
X167.248Y-98.075
X167.248Y-100.615
X170.998Y-95.535
X170.998Y-98.075
X170.998Y-100.615
T4
X175.748Y-94.555
X175.748Y-97.095
X175.748Y-99.635
X175.748Y-102.175
T5
X121.398Y-108.865
X129.598Y-108.865
T0
M30
