%TF.GenerationSoftware,KiCad,Pcbnew,(5.1.9-0-10_14)*%
%TF.CreationDate,2021-08-16T13:27:39+08:00*%
%TF.ProjectId,arduino_oled_sonic,61726475-696e-46f5-9f6f-6c65645f736f,rev?*%
%TF.SameCoordinates,Original*%
%TF.FileFunction,Legend,Top*%
%TF.FilePolarity,Positive*%
%FSLAX46Y46*%
G04 Gerber Fmt 4.6, Leading zero omitted, Abs format (unit mm)*
G04 Created by KiCad (PCBNEW (5.1.9-0-10_14)) date 2021-08-16 13:27:39*
%MOMM*%
%LPD*%
G01*
G04 APERTURE LIST*
%ADD10C,0.150000*%
%ADD11C,0.120000*%
%ADD12C,0.127000*%
G04 APERTURE END LIST*
D10*
X121045619Y-85526904D02*
X121045619Y-84441190D01*
X121045619Y-84984047D02*
X122045619Y-84984047D01*
X121902761Y-84803095D01*
X121807523Y-84622142D01*
X121759904Y-84441190D01*
X121045619Y-87336428D02*
X121045619Y-86250714D01*
X121045619Y-86793571D02*
X122045619Y-86793571D01*
X121902761Y-86612619D01*
X121807523Y-86431666D01*
X121759904Y-86250714D01*
X121045619Y-94936428D02*
X121045619Y-93850714D01*
X121045619Y-94393571D02*
X122045619Y-94393571D01*
X121902761Y-94212619D01*
X121807523Y-94031666D01*
X121759904Y-93850714D01*
X122045619Y-96112619D02*
X122045619Y-96293571D01*
X121998000Y-96474523D01*
X121950380Y-96564999D01*
X121855142Y-96655476D01*
X121664666Y-96745952D01*
X121426571Y-96745952D01*
X121236095Y-96655476D01*
X121140857Y-96564999D01*
X121093238Y-96474523D01*
X121045619Y-96293571D01*
X121045619Y-96112619D01*
X121093238Y-95931666D01*
X121140857Y-95841190D01*
X121236095Y-95750714D01*
X121426571Y-95660238D01*
X121664666Y-95660238D01*
X121855142Y-95750714D01*
X121950380Y-95841190D01*
X121998000Y-95931666D01*
X122045619Y-96112619D01*
X121045619Y-106336428D02*
X121045619Y-106698333D01*
X121093238Y-106879285D01*
X121140857Y-106969761D01*
X121283714Y-107150714D01*
X121474190Y-107241190D01*
X121855142Y-107241190D01*
X121950380Y-107150714D01*
X121998000Y-107060238D01*
X122045619Y-106879285D01*
X122045619Y-106517380D01*
X121998000Y-106336428D01*
X121950380Y-106245952D01*
X121855142Y-106155476D01*
X121617047Y-106155476D01*
X121521809Y-106245952D01*
X121474190Y-106336428D01*
X121426571Y-106517380D01*
X121426571Y-106879285D01*
X121474190Y-107060238D01*
X121521809Y-107150714D01*
X121617047Y-107241190D01*
X121617047Y-115565000D02*
X121664666Y-115384047D01*
X121712285Y-115293571D01*
X121807523Y-115203095D01*
X121855142Y-115203095D01*
X121950380Y-115293571D01*
X121998000Y-115384047D01*
X122045619Y-115565000D01*
X122045619Y-115926904D01*
X121998000Y-116107857D01*
X121950380Y-116198333D01*
X121855142Y-116288809D01*
X121807523Y-116288809D01*
X121712285Y-116198333D01*
X121664666Y-116107857D01*
X121617047Y-115926904D01*
X121617047Y-115565000D01*
X121569428Y-115384047D01*
X121521809Y-115293571D01*
X121426571Y-115203095D01*
X121236095Y-115203095D01*
X121140857Y-115293571D01*
X121093238Y-115384047D01*
X121045619Y-115565000D01*
X121045619Y-115926904D01*
X121093238Y-116107857D01*
X121140857Y-116198333D01*
X121236095Y-116288809D01*
X121426571Y-116288809D01*
X121521809Y-116198333D01*
X121569428Y-116107857D01*
X121617047Y-115926904D01*
X134498000Y-112865000D02*
X134498000Y-85365000D01*
X162998000Y-112865000D02*
X134498000Y-112865000D01*
X162998000Y-85365000D02*
X134498000Y-85365000D01*
X162998000Y-85365000D02*
X162998000Y-112865000D01*
X178998000Y-110165000D02*
X177198000Y-110165000D01*
X178998000Y-111965000D02*
X178998000Y-110165000D01*
X177198000Y-111965000D02*
X178998000Y-111965000D01*
X178998000Y-112965000D02*
X177198000Y-112965000D01*
X178998000Y-114765000D02*
X178998000Y-112965000D01*
X177198000Y-114765000D02*
X178998000Y-114765000D01*
X177198000Y-109765000D02*
X177198000Y-115165000D01*
X157524190Y-118519761D02*
X155924190Y-118853095D01*
X157524190Y-119186428D01*
X155924190Y-119519761D02*
X157524190Y-119519761D01*
X155924190Y-119995952D02*
X157524190Y-119995952D01*
X155924190Y-120567380D01*
X157524190Y-120567380D01*
X154898000Y-118853095D02*
X154974190Y-118757857D01*
X154974190Y-118615000D01*
X154898000Y-118472142D01*
X154745619Y-118376904D01*
X154593238Y-118329285D01*
X154288476Y-118281666D01*
X154059904Y-118281666D01*
X153755142Y-118329285D01*
X153602761Y-118376904D01*
X153450380Y-118472142D01*
X153374190Y-118615000D01*
X153374190Y-118710238D01*
X153450380Y-118853095D01*
X153526571Y-118900714D01*
X154059904Y-118900714D01*
X154059904Y-118710238D01*
X153374190Y-119329285D02*
X154974190Y-119329285D01*
X153374190Y-119900714D01*
X154974190Y-119900714D01*
X153374190Y-120376904D02*
X154974190Y-120376904D01*
X154974190Y-120615000D01*
X154898000Y-120757857D01*
X154745619Y-120853095D01*
X154593238Y-120900714D01*
X154288476Y-120948333D01*
X154059904Y-120948333D01*
X153755142Y-120900714D01*
X153602761Y-120853095D01*
X153450380Y-120757857D01*
X153374190Y-120615000D01*
X153374190Y-120376904D01*
X152348000Y-118853095D02*
X152424190Y-118757857D01*
X152424190Y-118615000D01*
X152348000Y-118472142D01*
X152195619Y-118376904D01*
X152043238Y-118329285D01*
X151738476Y-118281666D01*
X151509904Y-118281666D01*
X151205142Y-118329285D01*
X151052761Y-118376904D01*
X150900380Y-118472142D01*
X150824190Y-118615000D01*
X150824190Y-118710238D01*
X150900380Y-118853095D01*
X150976571Y-118900714D01*
X151509904Y-118900714D01*
X151509904Y-118710238D01*
X150824190Y-119329285D02*
X152424190Y-119329285D01*
X150824190Y-119900714D01*
X152424190Y-119900714D01*
X150824190Y-120376904D02*
X152424190Y-120376904D01*
X152424190Y-120615000D01*
X152348000Y-120757857D01*
X152195619Y-120853095D01*
X152043238Y-120900714D01*
X151738476Y-120948333D01*
X151509904Y-120948333D01*
X151205142Y-120900714D01*
X151052761Y-120853095D01*
X150900380Y-120757857D01*
X150824190Y-120615000D01*
X150824190Y-120376904D01*
X148883714Y-118329285D02*
X148883714Y-119091190D01*
X148274190Y-118710238D02*
X149493238Y-118710238D01*
X149874190Y-120043571D02*
X149874190Y-119567380D01*
X149112285Y-119519761D01*
X149188476Y-119567380D01*
X149264666Y-119662619D01*
X149264666Y-119900714D01*
X149188476Y-119995952D01*
X149112285Y-120043571D01*
X148959904Y-120091190D01*
X148578952Y-120091190D01*
X148426571Y-120043571D01*
X148350380Y-119995952D01*
X148274190Y-119900714D01*
X148274190Y-119662619D01*
X148350380Y-119567380D01*
X148426571Y-119519761D01*
X149874190Y-120376904D02*
X148274190Y-120710238D01*
X149874190Y-121043571D01*
X146333714Y-117615000D02*
X146333714Y-118376904D01*
X145724190Y-117995952D02*
X146943238Y-117995952D01*
X147324190Y-118757857D02*
X147324190Y-119376904D01*
X146714666Y-119043571D01*
X146714666Y-119186428D01*
X146638476Y-119281666D01*
X146562285Y-119329285D01*
X146409904Y-119376904D01*
X146028952Y-119376904D01*
X145876571Y-119329285D01*
X145800380Y-119281666D01*
X145724190Y-119186428D01*
X145724190Y-118900714D01*
X145800380Y-118805476D01*
X145876571Y-118757857D01*
X145876571Y-119805476D02*
X145800380Y-119853095D01*
X145724190Y-119805476D01*
X145800380Y-119757857D01*
X145876571Y-119805476D01*
X145724190Y-119805476D01*
X147324190Y-120186428D02*
X147324190Y-120805476D01*
X146714666Y-120472142D01*
X146714666Y-120615000D01*
X146638476Y-120710238D01*
X146562285Y-120757857D01*
X146409904Y-120805476D01*
X146028952Y-120805476D01*
X145876571Y-120757857D01*
X145800380Y-120710238D01*
X145724190Y-120615000D01*
X145724190Y-120329285D01*
X145800380Y-120234047D01*
X145876571Y-120186428D01*
X147324190Y-121091190D02*
X145724190Y-121424523D01*
X147324190Y-121757857D01*
X143174190Y-118162619D02*
X143936095Y-117829285D01*
X143174190Y-117591190D02*
X144774190Y-117591190D01*
X144774190Y-117972142D01*
X144698000Y-118067380D01*
X144621809Y-118115000D01*
X144469428Y-118162619D01*
X144240857Y-118162619D01*
X144088476Y-118115000D01*
X144012285Y-118067380D01*
X143936095Y-117972142D01*
X143936095Y-117591190D01*
X144012285Y-118591190D02*
X144012285Y-118924523D01*
X143174190Y-119067380D02*
X143174190Y-118591190D01*
X144774190Y-118591190D01*
X144774190Y-119067380D01*
X143250380Y-119448333D02*
X143174190Y-119591190D01*
X143174190Y-119829285D01*
X143250380Y-119924523D01*
X143326571Y-119972142D01*
X143478952Y-120019761D01*
X143631333Y-120019761D01*
X143783714Y-119972142D01*
X143859904Y-119924523D01*
X143936095Y-119829285D01*
X144012285Y-119638809D01*
X144088476Y-119543571D01*
X144164666Y-119495952D01*
X144317047Y-119448333D01*
X144469428Y-119448333D01*
X144621809Y-119495952D01*
X144698000Y-119543571D01*
X144774190Y-119638809D01*
X144774190Y-119876904D01*
X144698000Y-120019761D01*
X144012285Y-120448333D02*
X144012285Y-120781666D01*
X143174190Y-120924523D02*
X143174190Y-120448333D01*
X144774190Y-120448333D01*
X144774190Y-120924523D01*
X144774190Y-121210238D02*
X144774190Y-121781666D01*
X143174190Y-121495952D02*
X144774190Y-121495952D01*
X140624190Y-117710238D02*
X142224190Y-117710238D01*
X142224190Y-118376904D02*
X142224190Y-118567380D01*
X142148000Y-118662619D01*
X141995619Y-118757857D01*
X141690857Y-118805476D01*
X141157523Y-118805476D01*
X140852761Y-118757857D01*
X140700380Y-118662619D01*
X140624190Y-118567380D01*
X140624190Y-118376904D01*
X140700380Y-118281666D01*
X140852761Y-118186428D01*
X141157523Y-118138809D01*
X141690857Y-118138809D01*
X141995619Y-118186428D01*
X142148000Y-118281666D01*
X142224190Y-118376904D01*
X140624190Y-119805476D02*
X141386095Y-119472142D01*
X140624190Y-119234047D02*
X142224190Y-119234047D01*
X142224190Y-119615000D01*
X142148000Y-119710238D01*
X142071809Y-119757857D01*
X141919428Y-119805476D01*
X141690857Y-119805476D01*
X141538476Y-119757857D01*
X141462285Y-119710238D01*
X141386095Y-119615000D01*
X141386095Y-119234047D01*
X141462285Y-120234047D02*
X141462285Y-120567380D01*
X140624190Y-120710238D02*
X140624190Y-120234047D01*
X142224190Y-120234047D01*
X142224190Y-120710238D01*
X141462285Y-121472142D02*
X141462285Y-121138809D01*
X140624190Y-121138809D02*
X142224190Y-121138809D01*
X142224190Y-121615000D01*
X174106333Y-120400714D02*
X174106333Y-120876904D01*
X173649190Y-120305476D02*
X175249190Y-120638809D01*
X173649190Y-120972142D01*
X175249190Y-121495952D02*
X175249190Y-121591190D01*
X175173000Y-121686428D01*
X175096809Y-121734047D01*
X174944428Y-121781666D01*
X174639666Y-121829285D01*
X174258714Y-121829285D01*
X173953952Y-121781666D01*
X173801571Y-121734047D01*
X173725380Y-121686428D01*
X173649190Y-121591190D01*
X173649190Y-121495952D01*
X173725380Y-121400714D01*
X173801571Y-121353095D01*
X173953952Y-121305476D01*
X174258714Y-121257857D01*
X174639666Y-121257857D01*
X174944428Y-121305476D01*
X175096809Y-121353095D01*
X175173000Y-121400714D01*
X175249190Y-121495952D01*
X171556333Y-120400714D02*
X171556333Y-120876904D01*
X171099190Y-120305476D02*
X172699190Y-120638809D01*
X171099190Y-120972142D01*
X171099190Y-121829285D02*
X171099190Y-121257857D01*
X171099190Y-121543571D02*
X172699190Y-121543571D01*
X172470619Y-121448333D01*
X172318238Y-121353095D01*
X172242047Y-121257857D01*
X169006333Y-120400714D02*
X169006333Y-120876904D01*
X168549190Y-120305476D02*
X170149190Y-120638809D01*
X168549190Y-120972142D01*
X169996809Y-121257857D02*
X170073000Y-121305476D01*
X170149190Y-121400714D01*
X170149190Y-121638809D01*
X170073000Y-121734047D01*
X169996809Y-121781666D01*
X169844428Y-121829285D01*
X169692047Y-121829285D01*
X169463476Y-121781666D01*
X168549190Y-121210238D01*
X168549190Y-121829285D01*
X166456333Y-120400714D02*
X166456333Y-120876904D01*
X165999190Y-120305476D02*
X167599190Y-120638809D01*
X165999190Y-120972142D01*
X167599190Y-121210238D02*
X167599190Y-121829285D01*
X166989666Y-121495952D01*
X166989666Y-121638809D01*
X166913476Y-121734047D01*
X166837285Y-121781666D01*
X166684904Y-121829285D01*
X166303952Y-121829285D01*
X166151571Y-121781666D01*
X166075380Y-121734047D01*
X165999190Y-121638809D01*
X165999190Y-121353095D01*
X166075380Y-121257857D01*
X166151571Y-121210238D01*
X163906333Y-120400714D02*
X163906333Y-120876904D01*
X163449190Y-120305476D02*
X165049190Y-120638809D01*
X163449190Y-120972142D01*
X164515857Y-121734047D02*
X163449190Y-121734047D01*
X165125380Y-121495952D02*
X163982523Y-121257857D01*
X163982523Y-121876904D01*
X161356333Y-120400714D02*
X161356333Y-120876904D01*
X160899190Y-120305476D02*
X162499190Y-120638809D01*
X160899190Y-120972142D01*
X162499190Y-121781666D02*
X162499190Y-121305476D01*
X161737285Y-121257857D01*
X161813476Y-121305476D01*
X161889666Y-121400714D01*
X161889666Y-121638809D01*
X161813476Y-121734047D01*
X161737285Y-121781666D01*
X161584904Y-121829285D01*
X161203952Y-121829285D01*
X161051571Y-121781666D01*
X160975380Y-121734047D01*
X160899190Y-121638809D01*
X160899190Y-121400714D01*
X160975380Y-121305476D01*
X161051571Y-121257857D01*
X152913476Y-78769761D02*
X152989666Y-78674523D01*
X153065857Y-78626904D01*
X153218238Y-78579285D01*
X153294428Y-78579285D01*
X153446809Y-78626904D01*
X153523000Y-78674523D01*
X153599190Y-78769761D01*
X153599190Y-78960238D01*
X153523000Y-79055476D01*
X153446809Y-79103095D01*
X153294428Y-79150714D01*
X153218238Y-79150714D01*
X153065857Y-79103095D01*
X152989666Y-79055476D01*
X152913476Y-78960238D01*
X152913476Y-78769761D01*
X152837285Y-78674523D01*
X152761095Y-78626904D01*
X152608714Y-78579285D01*
X152303952Y-78579285D01*
X152151571Y-78626904D01*
X152075380Y-78674523D01*
X151999190Y-78769761D01*
X151999190Y-78960238D01*
X152075380Y-79055476D01*
X152151571Y-79103095D01*
X152303952Y-79150714D01*
X152608714Y-79150714D01*
X152761095Y-79103095D01*
X152837285Y-79055476D01*
X152913476Y-78960238D01*
X149449190Y-78674523D02*
X149449190Y-78865000D01*
X149525380Y-78960238D01*
X149601571Y-79007857D01*
X149830142Y-79103095D01*
X150134904Y-79150714D01*
X150744428Y-79150714D01*
X150896809Y-79103095D01*
X150973000Y-79055476D01*
X151049190Y-78960238D01*
X151049190Y-78769761D01*
X150973000Y-78674523D01*
X150896809Y-78626904D01*
X150744428Y-78579285D01*
X150363476Y-78579285D01*
X150211095Y-78626904D01*
X150134904Y-78674523D01*
X150058714Y-78769761D01*
X150058714Y-78960238D01*
X150134904Y-79055476D01*
X150211095Y-79103095D01*
X150363476Y-79150714D01*
X146899190Y-78674523D02*
X146899190Y-78103095D01*
X146899190Y-78388809D02*
X148499190Y-78388809D01*
X148270619Y-78293571D01*
X148118238Y-78198333D01*
X148042047Y-78103095D01*
X148499190Y-79293571D02*
X148499190Y-79388809D01*
X148423000Y-79484047D01*
X148346809Y-79531666D01*
X148194428Y-79579285D01*
X147889666Y-79626904D01*
X147508714Y-79626904D01*
X147203952Y-79579285D01*
X147051571Y-79531666D01*
X146975380Y-79484047D01*
X146899190Y-79388809D01*
X146899190Y-79293571D01*
X146975380Y-79198333D01*
X147051571Y-79150714D01*
X147203952Y-79103095D01*
X147508714Y-79055476D01*
X147889666Y-79055476D01*
X148194428Y-79103095D01*
X148346809Y-79150714D01*
X148423000Y-79198333D01*
X148499190Y-79293571D01*
X144349190Y-78674523D02*
X144349190Y-78103095D01*
X144349190Y-78388809D02*
X145949190Y-78388809D01*
X145720619Y-78293571D01*
X145568238Y-78198333D01*
X145492047Y-78103095D01*
X144349190Y-79626904D02*
X144349190Y-79055476D01*
X144349190Y-79341190D02*
X145949190Y-79341190D01*
X145720619Y-79245952D01*
X145568238Y-79150714D01*
X145492047Y-79055476D01*
X141799190Y-78674523D02*
X141799190Y-78103095D01*
X141799190Y-78388809D02*
X143399190Y-78388809D01*
X143170619Y-78293571D01*
X143018238Y-78198333D01*
X142942047Y-78103095D01*
X143246809Y-79055476D02*
X143323000Y-79103095D01*
X143399190Y-79198333D01*
X143399190Y-79436428D01*
X143323000Y-79531666D01*
X143246809Y-79579285D01*
X143094428Y-79626904D01*
X142942047Y-79626904D01*
X142713476Y-79579285D01*
X141799190Y-79007857D01*
X141799190Y-79626904D01*
X139249190Y-78674523D02*
X139249190Y-78103095D01*
X139249190Y-78388809D02*
X140849190Y-78388809D01*
X140620619Y-78293571D01*
X140468238Y-78198333D01*
X140392047Y-78103095D01*
X140849190Y-79007857D02*
X140849190Y-79626904D01*
X140239666Y-79293571D01*
X140239666Y-79436428D01*
X140163476Y-79531666D01*
X140087285Y-79579285D01*
X139934904Y-79626904D01*
X139553952Y-79626904D01*
X139401571Y-79579285D01*
X139325380Y-79531666D01*
X139249190Y-79436428D01*
X139249190Y-79150714D01*
X139325380Y-79055476D01*
X139401571Y-79007857D01*
X138223000Y-78103095D02*
X138299190Y-78007857D01*
X138299190Y-77865000D01*
X138223000Y-77722142D01*
X138070619Y-77626904D01*
X137918238Y-77579285D01*
X137613476Y-77531666D01*
X137384904Y-77531666D01*
X137080142Y-77579285D01*
X136927761Y-77626904D01*
X136775380Y-77722142D01*
X136699190Y-77865000D01*
X136699190Y-77960238D01*
X136775380Y-78103095D01*
X136851571Y-78150714D01*
X137384904Y-78150714D01*
X137384904Y-77960238D01*
X136699190Y-78579285D02*
X138299190Y-78579285D01*
X136699190Y-79150714D01*
X138299190Y-79150714D01*
X136699190Y-79626904D02*
X138299190Y-79626904D01*
X138299190Y-79865000D01*
X138223000Y-80007857D01*
X138070619Y-80103095D01*
X137918238Y-80150714D01*
X137613476Y-80198333D01*
X137384904Y-80198333D01*
X137080142Y-80150714D01*
X136927761Y-80103095D01*
X136775380Y-80007857D01*
X136699190Y-79865000D01*
X136699190Y-79626904D01*
X134606333Y-77245952D02*
X134606333Y-77722142D01*
X134149190Y-77150714D02*
X135749190Y-77484047D01*
X134149190Y-77817380D01*
X134149190Y-78722142D02*
X134911095Y-78388809D01*
X134149190Y-78150714D02*
X135749190Y-78150714D01*
X135749190Y-78531666D01*
X135673000Y-78626904D01*
X135596809Y-78674523D01*
X135444428Y-78722142D01*
X135215857Y-78722142D01*
X135063476Y-78674523D01*
X134987285Y-78626904D01*
X134911095Y-78531666D01*
X134911095Y-78150714D01*
X134987285Y-79150714D02*
X134987285Y-79484047D01*
X134149190Y-79626904D02*
X134149190Y-79150714D01*
X135749190Y-79150714D01*
X135749190Y-79626904D01*
X134987285Y-80388809D02*
X134987285Y-80055476D01*
X134149190Y-80055476D02*
X135749190Y-80055476D01*
X135749190Y-80531666D01*
X132056333Y-78150714D02*
X132056333Y-78626904D01*
X131599190Y-78055476D02*
X133199190Y-78388809D01*
X131599190Y-78722142D01*
X132665857Y-79484047D02*
X131599190Y-79484047D01*
X133275380Y-79245952D02*
X132132523Y-79007857D01*
X132132523Y-79626904D01*
X129506333Y-78150714D02*
X129506333Y-78626904D01*
X129049190Y-78055476D02*
X130649190Y-78388809D01*
X129049190Y-78722142D01*
X130649190Y-79531666D02*
X130649190Y-79055476D01*
X129887285Y-79007857D01*
X129963476Y-79055476D01*
X130039666Y-79150714D01*
X130039666Y-79388809D01*
X129963476Y-79484047D01*
X129887285Y-79531666D01*
X129734904Y-79579285D01*
X129353952Y-79579285D01*
X129201571Y-79531666D01*
X129125380Y-79484047D01*
X129049190Y-79388809D01*
X129049190Y-79150714D01*
X129125380Y-79055476D01*
X129201571Y-79007857D01*
X175299190Y-78817380D02*
X175299190Y-78912619D01*
X175223000Y-79007857D01*
X175146809Y-79055476D01*
X174994428Y-79103095D01*
X174689666Y-79150714D01*
X174308714Y-79150714D01*
X174003952Y-79103095D01*
X173851571Y-79055476D01*
X173775380Y-79007857D01*
X173699190Y-78912619D01*
X173699190Y-78817380D01*
X173775380Y-78722142D01*
X173851571Y-78674523D01*
X174003952Y-78626904D01*
X174308714Y-78579285D01*
X174689666Y-78579285D01*
X174994428Y-78626904D01*
X175146809Y-78674523D01*
X175223000Y-78722142D01*
X175299190Y-78817380D01*
X171149190Y-79150714D02*
X171149190Y-78579285D01*
X171149190Y-78865000D02*
X172749190Y-78865000D01*
X172520619Y-78769761D01*
X172368238Y-78674523D01*
X172292047Y-78579285D01*
X170046809Y-78579285D02*
X170123000Y-78626904D01*
X170199190Y-78722142D01*
X170199190Y-78960238D01*
X170123000Y-79055476D01*
X170046809Y-79103095D01*
X169894428Y-79150714D01*
X169742047Y-79150714D01*
X169513476Y-79103095D01*
X168599190Y-78531666D01*
X168599190Y-79150714D01*
X167649190Y-78531666D02*
X167649190Y-79150714D01*
X167039666Y-78817380D01*
X167039666Y-78960238D01*
X166963476Y-79055476D01*
X166887285Y-79103095D01*
X166734904Y-79150714D01*
X166353952Y-79150714D01*
X166201571Y-79103095D01*
X166125380Y-79055476D01*
X166049190Y-78960238D01*
X166049190Y-78674523D01*
X166125380Y-78579285D01*
X166201571Y-78531666D01*
X164565857Y-79055476D02*
X163499190Y-79055476D01*
X165175380Y-78817380D02*
X164032523Y-78579285D01*
X164032523Y-79198333D01*
X162549190Y-79103095D02*
X162549190Y-78626904D01*
X161787285Y-78579285D01*
X161863476Y-78626904D01*
X161939666Y-78722142D01*
X161939666Y-78960238D01*
X161863476Y-79055476D01*
X161787285Y-79103095D01*
X161634904Y-79150714D01*
X161253952Y-79150714D01*
X161101571Y-79103095D01*
X161025380Y-79055476D01*
X160949190Y-78960238D01*
X160949190Y-78722142D01*
X161025380Y-78626904D01*
X161101571Y-78579285D01*
X159999190Y-79055476D02*
X159999190Y-78865000D01*
X159923000Y-78769761D01*
X159846809Y-78722142D01*
X159618238Y-78626904D01*
X159313476Y-78579285D01*
X158703952Y-78579285D01*
X158551571Y-78626904D01*
X158475380Y-78674523D01*
X158399190Y-78769761D01*
X158399190Y-78960238D01*
X158475380Y-79055476D01*
X158551571Y-79103095D01*
X158703952Y-79150714D01*
X159084904Y-79150714D01*
X159237285Y-79103095D01*
X159313476Y-79055476D01*
X159389666Y-78960238D01*
X159389666Y-78769761D01*
X159313476Y-78674523D01*
X159237285Y-78626904D01*
X159084904Y-78579285D01*
X157449190Y-78531666D02*
X157449190Y-79198333D01*
X155849190Y-78769761D01*
X139390380Y-120999285D02*
X139390380Y-121570714D01*
X139390380Y-121285000D02*
X138390380Y-121285000D01*
X138533238Y-121380238D01*
X138628476Y-121475476D01*
X138676095Y-121570714D01*
D11*
%TO.C,J3*%
X168578000Y-99345000D02*
X165918000Y-99345000D01*
X168578000Y-99345000D02*
X168578000Y-94205000D01*
X168578000Y-94205000D02*
X165918000Y-94205000D01*
X165918000Y-99345000D02*
X165918000Y-94205000D01*
X165918000Y-101945000D02*
X165918000Y-100615000D01*
X167248000Y-101945000D02*
X165918000Y-101945000D01*
%TO.C,J2*%
X172328000Y-99345000D02*
X169668000Y-99345000D01*
X172328000Y-99345000D02*
X172328000Y-94205000D01*
X172328000Y-94205000D02*
X169668000Y-94205000D01*
X169668000Y-99345000D02*
X169668000Y-94205000D01*
X169668000Y-101945000D02*
X169668000Y-100615000D01*
X170998000Y-101945000D02*
X169668000Y-101945000D01*
%TO.C,SW4*%
X124998000Y-118865000D02*
X129498000Y-118865000D01*
X123748000Y-114865000D02*
X123748000Y-116365000D01*
X129498000Y-112365000D02*
X124998000Y-112365000D01*
X130748000Y-116365000D02*
X130748000Y-114865000D01*
%TO.C,SW3*%
X124998000Y-109865000D02*
X129498000Y-109865000D01*
X123748000Y-105865000D02*
X123748000Y-107365000D01*
X129498000Y-103365000D02*
X124998000Y-103365000D01*
X130748000Y-107365000D02*
X130748000Y-105865000D01*
%TO.C,SW2*%
X124998000Y-98365000D02*
X129498000Y-98365000D01*
X123748000Y-94365000D02*
X123748000Y-95865000D01*
X129498000Y-91865000D02*
X124998000Y-91865000D01*
X130748000Y-95865000D02*
X130748000Y-94365000D01*
%TO.C,SW1*%
X124998000Y-89365000D02*
X129498000Y-89365000D01*
X123748000Y-85365000D02*
X123748000Y-86865000D01*
X129498000Y-82865000D02*
X124998000Y-82865000D01*
X130748000Y-86865000D02*
X130748000Y-85365000D01*
%TO.C,J1*%
X162078000Y-93915000D02*
X159418000Y-93915000D01*
X162078000Y-101595000D02*
X162078000Y-93915000D01*
X159418000Y-101595000D02*
X159418000Y-93915000D01*
X162078000Y-101595000D02*
X159418000Y-101595000D01*
X162078000Y-102865000D02*
X162078000Y-104195000D01*
X162078000Y-104195000D02*
X160748000Y-104195000D01*
D12*
%TO.C,U1*%
X195018000Y-119865000D02*
X195018000Y-103865000D01*
X195018000Y-92865000D02*
X195018000Y-76865000D01*
X181218000Y-75865000D02*
X181218000Y-76865000D01*
X181218000Y-76865000D02*
X181218000Y-92865000D01*
X181218000Y-92865000D02*
X181218000Y-103865000D01*
X181218000Y-103865000D02*
X181218000Y-119865000D01*
X181218000Y-119865000D02*
X181218000Y-120865000D01*
X181218000Y-120865000D02*
X180018000Y-120865000D01*
X180018000Y-120865000D02*
X180018000Y-75865000D01*
X180018000Y-75865000D02*
X181218000Y-75865000D01*
X181218000Y-119865000D02*
X195018000Y-119865000D01*
X181218000Y-76865000D02*
X195018000Y-76865000D01*
X181218000Y-103865000D02*
X195018000Y-103865000D01*
X181218000Y-92865000D02*
X195018000Y-92865000D01*
D10*
%TO.C,P1*%
X137388000Y-122275000D02*
X137388000Y-125375000D01*
X138938000Y-122275000D02*
X137388000Y-122275000D01*
X140208000Y-125095000D02*
X140208000Y-122555000D01*
X137388000Y-125375000D02*
X138938000Y-125375000D01*
X157988000Y-122555000D02*
X140208000Y-122555000D01*
X157988000Y-125095000D02*
X157988000Y-122555000D01*
X140208000Y-125095000D02*
X157988000Y-125095000D01*
%TO.C,P2*%
X160248000Y-122275000D02*
X160248000Y-125375000D01*
X161798000Y-122275000D02*
X160248000Y-122275000D01*
X163068000Y-125095000D02*
X163068000Y-122555000D01*
X160248000Y-125375000D02*
X161798000Y-125375000D01*
X175768000Y-122555000D02*
X163068000Y-122555000D01*
X175768000Y-125095000D02*
X175768000Y-122555000D01*
X163068000Y-125095000D02*
X175768000Y-125095000D01*
%TO.C,P3*%
X128244000Y-74015000D02*
X128244000Y-77115000D01*
X129794000Y-74015000D02*
X128244000Y-74015000D01*
X131064000Y-76835000D02*
X131064000Y-74295000D01*
X128244000Y-77115000D02*
X129794000Y-77115000D01*
X153924000Y-74295000D02*
X131064000Y-74295000D01*
X153924000Y-76835000D02*
X153924000Y-74295000D01*
X131064000Y-76835000D02*
X153924000Y-76835000D01*
%TO.C,P4*%
X155168000Y-74015000D02*
X155168000Y-77115000D01*
X156718000Y-74015000D02*
X155168000Y-74015000D01*
X157988000Y-76835000D02*
X157988000Y-74295000D01*
X155168000Y-77115000D02*
X156718000Y-77115000D01*
X175768000Y-74295000D02*
X157988000Y-74295000D01*
X175768000Y-76835000D02*
X175768000Y-74295000D01*
X157988000Y-76835000D02*
X175768000Y-76835000D01*
%TO.C,P5*%
X127254000Y-123825000D02*
G75*
G03*
X127254000Y-123825000I-2286000J0D01*
G01*
%TO.C,P6*%
X179324000Y-118745000D02*
G75*
G03*
X179324000Y-118745000I-2286000J0D01*
G01*
%TO.C,P7*%
X128524000Y-75565000D02*
G75*
G03*
X128524000Y-75565000I-2286000J0D01*
G01*
%TO.C,P8*%
X179324000Y-90805000D02*
G75*
G03*
X179324000Y-90805000I-2286000J0D01*
G01*
%TO.C,J3*%
X166914666Y-102837380D02*
X166914666Y-103551666D01*
X166867047Y-103694523D01*
X166771809Y-103789761D01*
X166628952Y-103837380D01*
X166533714Y-103837380D01*
X167295619Y-102837380D02*
X167914666Y-102837380D01*
X167581333Y-103218333D01*
X167724190Y-103218333D01*
X167819428Y-103265952D01*
X167867047Y-103313571D01*
X167914666Y-103408809D01*
X167914666Y-103646904D01*
X167867047Y-103742142D01*
X167819428Y-103789761D01*
X167724190Y-103837380D01*
X167438476Y-103837380D01*
X167343238Y-103789761D01*
X167295619Y-103742142D01*
X166993238Y-83955476D02*
X166945619Y-84050714D01*
X166945619Y-84241190D01*
X166993238Y-84336428D01*
X167088476Y-84384047D01*
X167136095Y-84384047D01*
X167231333Y-84336428D01*
X167278952Y-84241190D01*
X167278952Y-84098333D01*
X167326571Y-84003095D01*
X167421809Y-83955476D01*
X167469428Y-83955476D01*
X167564666Y-84003095D01*
X167612285Y-84098333D01*
X167612285Y-84241190D01*
X167564666Y-84336428D01*
X166993238Y-85193571D02*
X166945619Y-85098333D01*
X166945619Y-84907857D01*
X166993238Y-84812619D01*
X167088476Y-84765000D01*
X167469428Y-84765000D01*
X167564666Y-84812619D01*
X167612285Y-84907857D01*
X167612285Y-85098333D01*
X167564666Y-85193571D01*
X167469428Y-85241190D01*
X167374190Y-85241190D01*
X167278952Y-84765000D01*
X166993238Y-86050714D02*
X166945619Y-85955476D01*
X166945619Y-85765000D01*
X166993238Y-85669761D01*
X167088476Y-85622142D01*
X167469428Y-85622142D01*
X167564666Y-85669761D01*
X167612285Y-85765000D01*
X167612285Y-85955476D01*
X167564666Y-86050714D01*
X167469428Y-86098333D01*
X167374190Y-86098333D01*
X167278952Y-85622142D01*
X166945619Y-86955476D02*
X167945619Y-86955476D01*
X166993238Y-86955476D02*
X166945619Y-86860238D01*
X166945619Y-86669761D01*
X166993238Y-86574523D01*
X167040857Y-86526904D01*
X167136095Y-86479285D01*
X167421809Y-86479285D01*
X167517047Y-86526904D01*
X167564666Y-86574523D01*
X167612285Y-86669761D01*
X167612285Y-86860238D01*
X167564666Y-86955476D01*
X166993238Y-87384047D02*
X166945619Y-87479285D01*
X166945619Y-87669761D01*
X166993238Y-87765000D01*
X167088476Y-87812619D01*
X167136095Y-87812619D01*
X167231333Y-87765000D01*
X167278952Y-87669761D01*
X167278952Y-87526904D01*
X167326571Y-87431666D01*
X167421809Y-87384047D01*
X167469428Y-87384047D01*
X167564666Y-87431666D01*
X167612285Y-87526904D01*
X167612285Y-87669761D01*
X167564666Y-87765000D01*
X167612285Y-88098333D02*
X167612285Y-88479285D01*
X167945619Y-88241190D02*
X167088476Y-88241190D01*
X166993238Y-88288809D01*
X166945619Y-88384047D01*
X166945619Y-88479285D01*
X167612285Y-89241190D02*
X166945619Y-89241190D01*
X167612285Y-88812619D02*
X167088476Y-88812619D01*
X166993238Y-88860238D01*
X166945619Y-88955476D01*
X166945619Y-89098333D01*
X166993238Y-89193571D01*
X167040857Y-89241190D01*
X166945619Y-90145952D02*
X167945619Y-90145952D01*
X166993238Y-90145952D02*
X166945619Y-90050714D01*
X166945619Y-89860238D01*
X166993238Y-89765000D01*
X167040857Y-89717380D01*
X167136095Y-89669761D01*
X167421809Y-89669761D01*
X167517047Y-89717380D01*
X167564666Y-89765000D01*
X167612285Y-89860238D01*
X167612285Y-90050714D01*
X167564666Y-90145952D01*
X166945619Y-90622142D02*
X167612285Y-90622142D01*
X167945619Y-90622142D02*
X167898000Y-90574523D01*
X167850380Y-90622142D01*
X167898000Y-90669761D01*
X167945619Y-90622142D01*
X167850380Y-90622142D01*
X166945619Y-91241190D02*
X166993238Y-91145952D01*
X167040857Y-91098333D01*
X167136095Y-91050714D01*
X167421809Y-91050714D01*
X167517047Y-91098333D01*
X167564666Y-91145952D01*
X167612285Y-91241190D01*
X167612285Y-91384047D01*
X167564666Y-91479285D01*
X167517047Y-91526904D01*
X167421809Y-91574523D01*
X167136095Y-91574523D01*
X167040857Y-91526904D01*
X166993238Y-91479285D01*
X166945619Y-91384047D01*
X166945619Y-91241190D01*
%TO.C,J2*%
X170664666Y-102837380D02*
X170664666Y-103551666D01*
X170617047Y-103694523D01*
X170521809Y-103789761D01*
X170378952Y-103837380D01*
X170283714Y-103837380D01*
X171093238Y-102932619D02*
X171140857Y-102885000D01*
X171236095Y-102837380D01*
X171474190Y-102837380D01*
X171569428Y-102885000D01*
X171617047Y-102932619D01*
X171664666Y-103027857D01*
X171664666Y-103123095D01*
X171617047Y-103265952D01*
X171045619Y-103837380D01*
X171664666Y-103837380D01*
X171412285Y-85955476D02*
X170412285Y-85955476D01*
X171364666Y-85955476D02*
X171412285Y-86050714D01*
X171412285Y-86241190D01*
X171364666Y-86336428D01*
X171317047Y-86384047D01*
X171221809Y-86431666D01*
X170936095Y-86431666D01*
X170840857Y-86384047D01*
X170793238Y-86336428D01*
X170745619Y-86241190D01*
X170745619Y-86050714D01*
X170793238Y-85955476D01*
X170745619Y-87288809D02*
X171269428Y-87288809D01*
X171364666Y-87241190D01*
X171412285Y-87145952D01*
X171412285Y-86955476D01*
X171364666Y-86860238D01*
X170793238Y-87288809D02*
X170745619Y-87193571D01*
X170745619Y-86955476D01*
X170793238Y-86860238D01*
X170888476Y-86812619D01*
X170983714Y-86812619D01*
X171078952Y-86860238D01*
X171126571Y-86955476D01*
X171126571Y-87193571D01*
X171174190Y-87288809D01*
X170745619Y-87765000D02*
X171412285Y-87765000D01*
X171221809Y-87765000D02*
X171317047Y-87812619D01*
X171364666Y-87860238D01*
X171412285Y-87955476D01*
X171412285Y-88050714D01*
X170745619Y-88812619D02*
X171269428Y-88812619D01*
X171364666Y-88765000D01*
X171412285Y-88669761D01*
X171412285Y-88479285D01*
X171364666Y-88384047D01*
X170793238Y-88812619D02*
X170745619Y-88717380D01*
X170745619Y-88479285D01*
X170793238Y-88384047D01*
X170888476Y-88336428D01*
X170983714Y-88336428D01*
X171078952Y-88384047D01*
X171126571Y-88479285D01*
X171126571Y-88717380D01*
X171174190Y-88812619D01*
X170745619Y-89431666D02*
X170793238Y-89336428D01*
X170888476Y-89288809D01*
X171745619Y-89288809D01*
X170745619Y-89955476D02*
X170793238Y-89860238D01*
X170888476Y-89812619D01*
X171745619Y-89812619D01*
X170745619Y-90765000D02*
X171269428Y-90765000D01*
X171364666Y-90717380D01*
X171412285Y-90622142D01*
X171412285Y-90431666D01*
X171364666Y-90336428D01*
X170793238Y-90765000D02*
X170745619Y-90669761D01*
X170745619Y-90431666D01*
X170793238Y-90336428D01*
X170888476Y-90288809D01*
X170983714Y-90288809D01*
X171078952Y-90336428D01*
X171126571Y-90431666D01*
X171126571Y-90669761D01*
X171174190Y-90765000D01*
X170745619Y-91145952D02*
X171412285Y-91669761D01*
X171412285Y-91145952D02*
X170745619Y-91669761D01*
%TO.C,SW4*%
X125914666Y-111769761D02*
X126057523Y-111817380D01*
X126295619Y-111817380D01*
X126390857Y-111769761D01*
X126438476Y-111722142D01*
X126486095Y-111626904D01*
X126486095Y-111531666D01*
X126438476Y-111436428D01*
X126390857Y-111388809D01*
X126295619Y-111341190D01*
X126105142Y-111293571D01*
X126009904Y-111245952D01*
X125962285Y-111198333D01*
X125914666Y-111103095D01*
X125914666Y-111007857D01*
X125962285Y-110912619D01*
X126009904Y-110865000D01*
X126105142Y-110817380D01*
X126343238Y-110817380D01*
X126486095Y-110865000D01*
X126819428Y-110817380D02*
X127057523Y-111817380D01*
X127248000Y-111103095D01*
X127438476Y-111817380D01*
X127676571Y-110817380D01*
X128486095Y-111150714D02*
X128486095Y-111817380D01*
X128248000Y-110769761D02*
X128009904Y-111484047D01*
X128628952Y-111484047D01*
%TO.C,SW3*%
X125914666Y-102769761D02*
X126057523Y-102817380D01*
X126295619Y-102817380D01*
X126390857Y-102769761D01*
X126438476Y-102722142D01*
X126486095Y-102626904D01*
X126486095Y-102531666D01*
X126438476Y-102436428D01*
X126390857Y-102388809D01*
X126295619Y-102341190D01*
X126105142Y-102293571D01*
X126009904Y-102245952D01*
X125962285Y-102198333D01*
X125914666Y-102103095D01*
X125914666Y-102007857D01*
X125962285Y-101912619D01*
X126009904Y-101865000D01*
X126105142Y-101817380D01*
X126343238Y-101817380D01*
X126486095Y-101865000D01*
X126819428Y-101817380D02*
X127057523Y-102817380D01*
X127248000Y-102103095D01*
X127438476Y-102817380D01*
X127676571Y-101817380D01*
X127962285Y-101817380D02*
X128581333Y-101817380D01*
X128248000Y-102198333D01*
X128390857Y-102198333D01*
X128486095Y-102245952D01*
X128533714Y-102293571D01*
X128581333Y-102388809D01*
X128581333Y-102626904D01*
X128533714Y-102722142D01*
X128486095Y-102769761D01*
X128390857Y-102817380D01*
X128105142Y-102817380D01*
X128009904Y-102769761D01*
X127962285Y-102722142D01*
%TO.C,SW2*%
X125914666Y-91269761D02*
X126057523Y-91317380D01*
X126295619Y-91317380D01*
X126390857Y-91269761D01*
X126438476Y-91222142D01*
X126486095Y-91126904D01*
X126486095Y-91031666D01*
X126438476Y-90936428D01*
X126390857Y-90888809D01*
X126295619Y-90841190D01*
X126105142Y-90793571D01*
X126009904Y-90745952D01*
X125962285Y-90698333D01*
X125914666Y-90603095D01*
X125914666Y-90507857D01*
X125962285Y-90412619D01*
X126009904Y-90365000D01*
X126105142Y-90317380D01*
X126343238Y-90317380D01*
X126486095Y-90365000D01*
X126819428Y-90317380D02*
X127057523Y-91317380D01*
X127248000Y-90603095D01*
X127438476Y-91317380D01*
X127676571Y-90317380D01*
X128009904Y-90412619D02*
X128057523Y-90365000D01*
X128152761Y-90317380D01*
X128390857Y-90317380D01*
X128486095Y-90365000D01*
X128533714Y-90412619D01*
X128581333Y-90507857D01*
X128581333Y-90603095D01*
X128533714Y-90745952D01*
X127962285Y-91317380D01*
X128581333Y-91317380D01*
%TO.C,SW1*%
X125914666Y-82269761D02*
X126057523Y-82317380D01*
X126295619Y-82317380D01*
X126390857Y-82269761D01*
X126438476Y-82222142D01*
X126486095Y-82126904D01*
X126486095Y-82031666D01*
X126438476Y-81936428D01*
X126390857Y-81888809D01*
X126295619Y-81841190D01*
X126105142Y-81793571D01*
X126009904Y-81745952D01*
X125962285Y-81698333D01*
X125914666Y-81603095D01*
X125914666Y-81507857D01*
X125962285Y-81412619D01*
X126009904Y-81365000D01*
X126105142Y-81317380D01*
X126343238Y-81317380D01*
X126486095Y-81365000D01*
X126819428Y-81317380D02*
X127057523Y-82317380D01*
X127248000Y-81603095D01*
X127438476Y-82317380D01*
X127676571Y-81317380D01*
X128581333Y-82317380D02*
X128009904Y-82317380D01*
X128295619Y-82317380D02*
X128295619Y-81317380D01*
X128200380Y-81460238D01*
X128105142Y-81555476D01*
X128009904Y-81603095D01*
%TO.C,J1*%
X160414666Y-104647380D02*
X160414666Y-105361666D01*
X160367047Y-105504523D01*
X160271809Y-105599761D01*
X160128952Y-105647380D01*
X160033714Y-105647380D01*
X161414666Y-105647380D02*
X160843238Y-105647380D01*
X161128952Y-105647380D02*
X161128952Y-104647380D01*
X161033714Y-104790238D01*
X160938476Y-104885476D01*
X160843238Y-104933095D01*
%TO.C,U1*%
X178345903Y-104402699D02*
X177535959Y-104402699D01*
X177440671Y-104450342D01*
X177393027Y-104497986D01*
X177345383Y-104593274D01*
X177345383Y-104783849D01*
X177393027Y-104879137D01*
X177440671Y-104926780D01*
X177535959Y-104974424D01*
X178345903Y-104974424D01*
X177345383Y-105974944D02*
X177345383Y-105403219D01*
X177345383Y-105689081D02*
X178345903Y-105689081D01*
X178202972Y-105593794D01*
X178107684Y-105498506D01*
X178060040Y-105403219D01*
X175344853Y-104426023D02*
X176346546Y-104426023D01*
X175869549Y-104426023D02*
X175869549Y-104998419D01*
X175344853Y-104998419D02*
X176346546Y-104998419D01*
X175440252Y-106047812D02*
X175392552Y-106000112D01*
X175344853Y-105857013D01*
X175344853Y-105761614D01*
X175392552Y-105618515D01*
X175487952Y-105523115D01*
X175583351Y-105475416D01*
X175774150Y-105427716D01*
X175917249Y-105427716D01*
X176108047Y-105475416D01*
X176203447Y-105523115D01*
X176298846Y-105618515D01*
X176346546Y-105761614D01*
X176346546Y-105857013D01*
X176298846Y-106000112D01*
X176251146Y-106047812D01*
X175726450Y-106477109D02*
X175726450Y-107240303D01*
X175392552Y-107669600D02*
X175344853Y-107812699D01*
X175344853Y-108051198D01*
X175392552Y-108146597D01*
X175440252Y-108194297D01*
X175535651Y-108241996D01*
X175631051Y-108241996D01*
X175726450Y-108194297D01*
X175774150Y-108146597D01*
X175821849Y-108051198D01*
X175869549Y-107860399D01*
X175917249Y-107765000D01*
X175964948Y-107717300D01*
X176060348Y-107669600D01*
X176155747Y-107669600D01*
X176251146Y-107717300D01*
X176298846Y-107765000D01*
X176346546Y-107860399D01*
X176346546Y-108098897D01*
X176298846Y-108241996D01*
X175344853Y-109243689D02*
X175821849Y-108909792D01*
X175344853Y-108671293D02*
X176346546Y-108671293D01*
X176346546Y-109052891D01*
X176298846Y-109148290D01*
X176251146Y-109195990D01*
X176155747Y-109243689D01*
X176012648Y-109243689D01*
X175917249Y-109195990D01*
X175869549Y-109148290D01*
X175821849Y-109052891D01*
X175821849Y-108671293D01*
X176346546Y-109863785D02*
X176346546Y-109959184D01*
X176298846Y-110054584D01*
X176251146Y-110102283D01*
X176155747Y-110149983D01*
X175964948Y-110197683D01*
X175726450Y-110197683D01*
X175535651Y-110149983D01*
X175440252Y-110102283D01*
X175392552Y-110054584D01*
X175344853Y-109959184D01*
X175344853Y-109863785D01*
X175392552Y-109768386D01*
X175440252Y-109720686D01*
X175535651Y-109672986D01*
X175726450Y-109625287D01*
X175964948Y-109625287D01*
X176155747Y-109672986D01*
X176251146Y-109720686D01*
X176298846Y-109768386D01*
X176346546Y-109863785D01*
X176012648Y-111056277D02*
X175344853Y-111056277D01*
X176394245Y-110817778D02*
X175678750Y-110579280D01*
X175678750Y-111199376D01*
%TO.C,P1*%
X147059904Y-116617380D02*
X147059904Y-115617380D01*
X147440857Y-115617380D01*
X147536095Y-115665000D01*
X147583714Y-115712619D01*
X147631333Y-115807857D01*
X147631333Y-115950714D01*
X147583714Y-116045952D01*
X147536095Y-116093571D01*
X147440857Y-116141190D01*
X147059904Y-116141190D01*
X148583714Y-116617380D02*
X148012285Y-116617380D01*
X148298000Y-116617380D02*
X148298000Y-115617380D01*
X148202761Y-115760238D01*
X148107523Y-115855476D01*
X148012285Y-115903095D01*
%TO.C,P2*%
X167459904Y-116617380D02*
X167459904Y-115617380D01*
X167840857Y-115617380D01*
X167936095Y-115665000D01*
X167983714Y-115712619D01*
X168031333Y-115807857D01*
X168031333Y-115950714D01*
X167983714Y-116045952D01*
X167936095Y-116093571D01*
X167840857Y-116141190D01*
X167459904Y-116141190D01*
X168412285Y-115712619D02*
X168459904Y-115665000D01*
X168555142Y-115617380D01*
X168793238Y-115617380D01*
X168888476Y-115665000D01*
X168936095Y-115712619D01*
X168983714Y-115807857D01*
X168983714Y-115903095D01*
X168936095Y-116045952D01*
X168364666Y-116617380D01*
X168983714Y-116617380D01*
%TO.C,P3*%
X140459904Y-82417380D02*
X140459904Y-81417380D01*
X140840857Y-81417380D01*
X140936095Y-81465000D01*
X140983714Y-81512619D01*
X141031333Y-81607857D01*
X141031333Y-81750714D01*
X140983714Y-81845952D01*
X140936095Y-81893571D01*
X140840857Y-81941190D01*
X140459904Y-81941190D01*
X141364666Y-81417380D02*
X141983714Y-81417380D01*
X141650380Y-81798333D01*
X141793238Y-81798333D01*
X141888476Y-81845952D01*
X141936095Y-81893571D01*
X141983714Y-81988809D01*
X141983714Y-82226904D01*
X141936095Y-82322142D01*
X141888476Y-82369761D01*
X141793238Y-82417380D01*
X141507523Y-82417380D01*
X141412285Y-82369761D01*
X141364666Y-82322142D01*
%TO.C,P4*%
X165259904Y-82217380D02*
X165259904Y-81217380D01*
X165640857Y-81217380D01*
X165736095Y-81265000D01*
X165783714Y-81312619D01*
X165831333Y-81407857D01*
X165831333Y-81550714D01*
X165783714Y-81645952D01*
X165736095Y-81693571D01*
X165640857Y-81741190D01*
X165259904Y-81741190D01*
X166688476Y-81550714D02*
X166688476Y-82217380D01*
X166450380Y-81169761D02*
X166212285Y-81884047D01*
X166831333Y-81884047D01*
%TD*%
M02*
