%TF.GenerationSoftware,KiCad,Pcbnew,(5.1.9-0-10_14)*%
%TF.CreationDate,2021-08-16T13:27:39+08:00*%
%TF.ProjectId,arduino_oled_sonic,61726475-696e-46f5-9f6f-6c65645f736f,rev?*%
%TF.SameCoordinates,Original*%
%TF.FileFunction,Copper,L2,Bot*%
%TF.FilePolarity,Positive*%
%FSLAX46Y46*%
G04 Gerber Fmt 4.6, Leading zero omitted, Abs format (unit mm)*
G04 Created by KiCad (PCBNEW (5.1.9-0-10_14)) date 2021-08-16 13:27:39*
%MOMM*%
%LPD*%
G01*
G04 APERTURE LIST*
%TA.AperFunction,ComponentPad*%
%ADD10O,1.700000X1.700000*%
%TD*%
%TA.AperFunction,ComponentPad*%
%ADD11R,1.700000X1.700000*%
%TD*%
%TA.AperFunction,ComponentPad*%
%ADD12C,2.000000*%
%TD*%
%TA.AperFunction,ComponentPad*%
%ADD13C,1.530000*%
%TD*%
%TA.AperFunction,ComponentPad*%
%ADD14O,1.727200X2.032000*%
%TD*%
%TA.AperFunction,ComponentPad*%
%ADD15C,4.064000*%
%TD*%
%TA.AperFunction,Conductor*%
%ADD16C,1.000000*%
%TD*%
G04 APERTURE END LIST*
D10*
%TO.P,J3,3*%
%TO.N,GND*%
X167248000Y-95535000D03*
%TO.P,J3,2*%
%TO.N,+5V*%
X167248000Y-98075000D03*
D11*
%TO.P,J3,1*%
%TO.N,/7*%
X167248000Y-100615000D03*
%TD*%
D10*
%TO.P,J2,3*%
%TO.N,/7*%
X170998000Y-95535000D03*
%TO.P,J2,2*%
%TO.N,+5V*%
X170998000Y-98075000D03*
D11*
%TO.P,J2,1*%
%TO.N,GND*%
X170998000Y-100615000D03*
%TD*%
D12*
%TO.P,SW4,1*%
%TO.N,GND*%
X130498000Y-113365000D03*
%TO.P,SW4,2*%
%TO.N,/8*%
X130498000Y-117865000D03*
%TO.P,SW4,1*%
%TO.N,GND*%
X123998000Y-113365000D03*
%TO.P,SW4,2*%
%TO.N,/8*%
X123998000Y-117865000D03*
%TD*%
%TO.P,SW3,1*%
%TO.N,GND*%
X130498000Y-104365000D03*
%TO.P,SW3,2*%
%TO.N,/9(\u002A\u002A)*%
X130498000Y-108865000D03*
%TO.P,SW3,1*%
%TO.N,GND*%
X123998000Y-104365000D03*
%TO.P,SW3,2*%
%TO.N,/9(\u002A\u002A)*%
X123998000Y-108865000D03*
%TD*%
%TO.P,SW2,1*%
%TO.N,GND*%
X130498000Y-92865000D03*
%TO.P,SW2,2*%
%TO.N,/10(\u002A\u002A/SS)*%
X130498000Y-97365000D03*
%TO.P,SW2,1*%
%TO.N,GND*%
X123998000Y-92865000D03*
%TO.P,SW2,2*%
%TO.N,/10(\u002A\u002A/SS)*%
X123998000Y-97365000D03*
%TD*%
%TO.P,SW1,1*%
%TO.N,GND*%
X130498000Y-83865000D03*
%TO.P,SW1,2*%
%TO.N,/11(\u002A\u002A/MOSI)*%
X130498000Y-88365000D03*
%TO.P,SW1,1*%
%TO.N,GND*%
X123998000Y-83865000D03*
%TO.P,SW1,2*%
%TO.N,/11(\u002A\u002A/MOSI)*%
X123998000Y-88365000D03*
%TD*%
D10*
%TO.P,J1,4*%
%TO.N,GND*%
X160748000Y-95245000D03*
%TO.P,J1,3*%
%TO.N,+3V3*%
X160748000Y-97785000D03*
%TO.P,J1,2*%
%TO.N,/A5(SCL)*%
X160748000Y-100325000D03*
D11*
%TO.P,J1,1*%
%TO.N,/A4(SDA)*%
X160748000Y-102865000D03*
%TD*%
D13*
%TO.P,U1,2*%
%TO.N,/12(MISO)*%
X175748000Y-99635000D03*
%TO.P,U1,3*%
%TO.N,/13(SCK)*%
X175748000Y-97095000D03*
%TO.P,U1,4*%
%TO.N,GND*%
X175748000Y-94555000D03*
%TO.P,U1,1*%
%TO.N,+5V*%
X175748000Y-102175000D03*
%TD*%
D14*
%TO.P,P1,1*%
%TO.N,Net-(P1-Pad1)*%
X138938000Y-123825000D03*
%TO.P,P1,2*%
%TO.N,/IOREF*%
X141478000Y-123825000D03*
%TO.P,P1,3*%
%TO.N,/Reset*%
X144018000Y-123825000D03*
%TO.P,P1,4*%
%TO.N,+3V3*%
X146558000Y-123825000D03*
%TO.P,P1,5*%
%TO.N,+5V*%
X149098000Y-123825000D03*
%TO.P,P1,6*%
%TO.N,GND*%
X151638000Y-123825000D03*
%TO.P,P1,7*%
X154178000Y-123825000D03*
%TO.P,P1,8*%
%TO.N,/Vin*%
X156718000Y-123825000D03*
%TD*%
%TO.P,P2,1*%
%TO.N,/A0*%
X161798000Y-123825000D03*
%TO.P,P2,2*%
%TO.N,/A1*%
X164338000Y-123825000D03*
%TO.P,P2,3*%
%TO.N,/A2*%
X166878000Y-123825000D03*
%TO.P,P2,4*%
%TO.N,/A3*%
X169418000Y-123825000D03*
%TO.P,P2,5*%
%TO.N,/A4(SDA)*%
X171958000Y-123825000D03*
%TO.P,P2,6*%
%TO.N,/A5(SCL)*%
X174498000Y-123825000D03*
%TD*%
%TO.P,P3,1*%
%TO.N,Net-(P3-Pad1)*%
X129794000Y-75565000D03*
%TO.P,P3,2*%
%TO.N,Net-(P3-Pad2)*%
X132334000Y-75565000D03*
%TO.P,P3,3*%
%TO.N,/AREF*%
X134874000Y-75565000D03*
%TO.P,P3,4*%
%TO.N,GND*%
X137414000Y-75565000D03*
%TO.P,P3,5*%
%TO.N,/13(SCK)*%
X139954000Y-75565000D03*
%TO.P,P3,6*%
%TO.N,/12(MISO)*%
X142494000Y-75565000D03*
%TO.P,P3,7*%
%TO.N,/11(\u002A\u002A/MOSI)*%
X145034000Y-75565000D03*
%TO.P,P3,8*%
%TO.N,/10(\u002A\u002A/SS)*%
X147574000Y-75565000D03*
%TO.P,P3,9*%
%TO.N,/9(\u002A\u002A)*%
X150114000Y-75565000D03*
%TO.P,P3,10*%
%TO.N,/8*%
X152654000Y-75565000D03*
%TD*%
%TO.P,P4,1*%
%TO.N,/7*%
X156718000Y-75565000D03*
%TO.P,P4,2*%
%TO.N,/6(\u002A\u002A)*%
X159258000Y-75565000D03*
%TO.P,P4,3*%
%TO.N,/5(\u002A\u002A)*%
X161798000Y-75565000D03*
%TO.P,P4,4*%
%TO.N,/4*%
X164338000Y-75565000D03*
%TO.P,P4,5*%
%TO.N,/3(\u002A\u002A)*%
X166878000Y-75565000D03*
%TO.P,P4,6*%
%TO.N,/2*%
X169418000Y-75565000D03*
%TO.P,P4,7*%
%TO.N,/1(Tx)*%
X171958000Y-75565000D03*
%TO.P,P4,8*%
%TO.N,/0(Rx)*%
X174498000Y-75565000D03*
%TD*%
D15*
%TO.P,P5,1*%
%TO.N,Net-(P5-Pad1)*%
X124968000Y-123825000D03*
%TD*%
%TO.P,P6,1*%
%TO.N,Net-(P6-Pad1)*%
X177038000Y-118745000D03*
%TD*%
%TO.P,P7,1*%
%TO.N,Net-(P7-Pad1)*%
X126238000Y-75565000D03*
%TD*%
%TO.P,P8,1*%
%TO.N,Net-(P8-Pad1)*%
X177038000Y-90805000D03*
%TD*%
D16*
%TO.N,GND*%
X137414000Y-75565000D02*
X137414000Y-82199000D01*
X135748000Y-83865000D02*
X130498000Y-83865000D01*
X137414000Y-82199000D02*
X135748000Y-83865000D01*
X130498000Y-83865000D02*
X123998000Y-83865000D01*
X123998000Y-92865000D02*
X130498000Y-92865000D01*
X130498000Y-104365000D02*
X123998000Y-104365000D01*
X123998000Y-113365000D02*
X130498000Y-113365000D01*
X151638000Y-123825000D02*
X154178000Y-123825000D01*
X130498000Y-113365000D02*
X154248000Y-113365000D01*
X154248000Y-123755000D02*
X154178000Y-123825000D01*
X154248000Y-113365000D02*
X154248000Y-123755000D01*
X154248000Y-113365000D02*
X154248000Y-96365000D01*
X155368000Y-95245000D02*
X160748000Y-95245000D01*
X154248000Y-96365000D02*
X155368000Y-95245000D01*
X167248000Y-95535000D02*
X167918000Y-95535000D01*
X167918000Y-95535000D02*
X169248000Y-96865000D01*
X169248000Y-96865000D02*
X169248000Y-100115000D01*
X169748000Y-100615000D02*
X170998000Y-100615000D01*
X169248000Y-100115000D02*
X169748000Y-100615000D01*
X167248000Y-95535000D02*
X167248000Y-94115000D01*
X167248000Y-94115000D02*
X167998000Y-93365000D01*
X167998000Y-93365000D02*
X174248000Y-93365000D01*
X175438000Y-94555000D02*
X175748000Y-94555000D01*
X174248000Y-93365000D02*
X175438000Y-94555000D01*
X123998000Y-83865000D02*
X121998000Y-83865000D01*
X121998000Y-83865000D02*
X120998000Y-84865000D01*
X121998000Y-113365000D02*
X120998000Y-112365000D01*
X123998000Y-113365000D02*
X121998000Y-113365000D01*
X123998000Y-104365000D02*
X120998000Y-104365000D01*
X120998000Y-104365000D02*
X120998000Y-112365000D01*
X123998000Y-92865000D02*
X121248000Y-92865000D01*
X120998000Y-93115000D02*
X120998000Y-104365000D01*
X121248000Y-92865000D02*
X120998000Y-93115000D01*
X120998000Y-84865000D02*
X120998000Y-93115000D01*
%TO.N,/A4(SDA)*%
X160748000Y-102865000D02*
X160748000Y-113615000D01*
X160748000Y-113615000D02*
X165498000Y-118365000D01*
X168418000Y-118365000D02*
X171958000Y-121905000D01*
X165498000Y-118365000D02*
X168418000Y-118365000D01*
X171958000Y-121905000D02*
X171958000Y-123825000D01*
%TO.N,/A5(SCL)*%
X174498000Y-121615000D02*
X174498000Y-122364999D01*
X174498000Y-123825000D02*
X174498000Y-121615000D01*
X160748000Y-100325000D02*
X161208000Y-100325000D01*
X161208000Y-100325000D02*
X162498000Y-101615000D01*
X162498000Y-101615000D02*
X162498000Y-113115000D01*
X162498000Y-113115000D02*
X166248000Y-116865000D01*
X169748000Y-116865000D02*
X173873000Y-120990000D01*
X166248000Y-116865000D02*
X169748000Y-116865000D01*
X174498000Y-121615000D02*
X173873000Y-120990000D01*
%TO.N,/9(\u002A\u002A)*%
X130498000Y-108865000D02*
X123998000Y-108865000D01*
%TO.N,/8*%
X123998000Y-117865000D02*
X130498000Y-117865000D01*
%TO.N,/13(SCK)*%
X163998000Y-93865000D02*
X155248000Y-85115000D01*
X163998000Y-102865000D02*
X163998000Y-93865000D01*
X147998000Y-85115000D02*
X139954000Y-77071000D01*
X176498000Y-104365000D02*
X165498000Y-104365000D01*
X177748000Y-103115000D02*
X176498000Y-104365000D01*
X139954000Y-77071000D02*
X139954000Y-75565000D01*
X165498000Y-104365000D02*
X163998000Y-102865000D01*
X177748000Y-97615000D02*
X177748000Y-103115000D01*
X177228000Y-97095000D02*
X177748000Y-97615000D01*
X155248000Y-85115000D02*
X147998000Y-85115000D01*
X175748000Y-97095000D02*
X177228000Y-97095000D01*
%TO.N,/10(\u002A\u002A/SS)*%
X130498000Y-97365000D02*
X123998000Y-97365000D01*
%TO.N,/12(MISO)*%
X142494000Y-77611000D02*
X142494000Y-75565000D01*
X148498000Y-83615000D02*
X142494000Y-77611000D01*
X175748000Y-99635000D02*
X173518000Y-99635000D01*
X173518000Y-99635000D02*
X173518000Y-101845000D01*
X173518000Y-101845000D02*
X172248000Y-103115000D01*
X172248000Y-103115000D02*
X166498000Y-103115000D01*
X166498000Y-103115000D02*
X165248000Y-101865000D01*
X165248000Y-92865000D02*
X155998000Y-83615000D01*
X165248000Y-101865000D02*
X165248000Y-92865000D01*
X155998000Y-83615000D02*
X148498000Y-83615000D01*
%TO.N,/11(\u002A\u002A/MOSI)*%
X123998000Y-88365000D02*
X130498000Y-88365000D01*
%TD*%
M02*
