M48
; DRILL file {KiCad (5.1.9-0-10_14)} date Monday, August 16, 2021 at 01:27:41 PM
; FORMAT={-:-/ absolute / metric / decimal}
; #@! TF.CreationDate,2021-08-16T13:27:41+08:00
; #@! TF.GenerationSoftware,Kicad,Pcbnew,(5.1.9-0-10_14)
; #@! TF.FileFunction,Plated,1,2,PTH
FMAT,2
METRIC
T1C1.000
T2C1.016
T3C1.020
T4C1.100
T5C3.048
%
G90
G05
T1
X160.748Y-95.245
X160.748Y-97.785
X160.748Y-100.325
X160.748Y-102.865
X167.248Y-95.535
X167.248Y-98.075
X167.248Y-100.615
X170.998Y-95.535
X170.998Y-98.075
X170.998Y-100.615
T2
X129.794Y-75.565
X132.334Y-75.565
X134.874Y-75.565
X137.414Y-75.565
X138.938Y-123.825
X139.954Y-75.565
X141.478Y-123.825
X142.494Y-75.565
X144.018Y-123.825
X145.034Y-75.565
X146.558Y-123.825
X147.574Y-75.565
X149.098Y-123.825
X150.114Y-75.565
X151.638Y-123.825
X152.654Y-75.565
X154.178Y-123.825
X156.718Y-75.565
X156.718Y-123.825
X159.258Y-75.565
X161.798Y-75.565
X161.798Y-123.825
X164.338Y-75.565
X164.338Y-123.825
X166.878Y-75.565
X166.878Y-123.825
X169.418Y-75.565
X169.418Y-123.825
X171.958Y-75.565
X171.958Y-123.825
X174.498Y-75.565
X174.498Y-123.825
T3
X175.748Y-94.555
X175.748Y-97.095
X175.748Y-99.635
X175.748Y-102.175
T4
X123.998Y-83.865
X123.998Y-88.365
X123.998Y-92.865
X123.998Y-97.365
X123.998Y-104.365
X123.998Y-108.865
X123.998Y-113.365
X123.998Y-117.865
X130.498Y-83.865
X130.498Y-88.365
X130.498Y-92.865
X130.498Y-97.365
X130.498Y-104.365
X130.498Y-108.865
X130.498Y-113.365
X130.498Y-117.865
T5
X124.968Y-123.825
X126.238Y-75.565
X177.038Y-90.805
X177.038Y-118.745
T0
M30
